<svg width="213" height="80" viewBox="0 0 213 80" fill="none" xmlns="http://www.w3.org/2000/svg">
<path d="M39.5625 29.0625C47.9552 29.0625 54.7692 31.5705 54.8721 34.6787C66.7657 36.7753 75 41.3079 75 46.5625C75 53.8112 59.33 59.6875 40 59.6875C20.67 59.6875 5 53.8112 5 46.5625C5 41.4378 12.8323 36.9991 24.2529 34.8379C24.2517 34.8086 24.25 34.7794 24.25 34.75C24.25 31.6089 31.1056 29.0625 39.5625 29.0625Z" fill="#E17100"/>
<path d="M35.5078 32.125C35.9263 31.8834 36.7553 32.5358 37.3594 33.582C37.9634 34.6283 38.1138 35.6724 37.6953 35.9141C37.2768 36.1556 36.4478 35.5032 35.8438 34.457C35.2397 33.4108 35.0893 32.3666 35.5078 32.125ZM42.8438 33.582C43.4478 32.5358 44.2768 31.8834 44.6953 32.125C45.1138 32.3667 44.9634 33.4108 44.3594 34.457C43.7554 35.5032 42.9264 36.1555 42.5078 35.9141C42.0893 35.6724 42.2397 34.6283 42.8438 33.582ZM23.8125 20.3125C25.9871 20.3125 27.75 22.0754 27.75 24.25C27.75 26.4246 25.9871 28.1875 23.8125 28.1875C21.6379 28.1875 19.875 26.4246 19.875 24.25C19.875 22.0754 21.6379 20.3125 23.8125 20.3125ZM54.4375 20.3125C56.6121 20.3125 58.375 22.0754 58.375 24.25C58.375 26.4246 56.6121 28.1875 54.4375 28.1875C52.2629 28.1875 50.5 26.4246 50.5 24.25C50.5 22.0754 52.2629 20.3125 54.4375 20.3125Z" fill="#262626"/>
<path d="M101.8 47.56H106.56V52C106.56 52.5067 106.693 52.84 106.96 53C107.227 53.1333 107.84 53.2 108.8 53.2C109.013 53.2 109.36 53.2 109.84 53.2C110.347 53.2 110.893 53.2 111.48 53.2C112.093 53.2 112.667 53.2 113.2 53.2C113.733 53.2 114.133 53.2 114.4 53.2C114.907 53.2 115.28 53.1333 115.52 53C115.787 52.8667 115.987 52.5733 116.12 52.12C116.253 51.64 116.333 50.96 116.36 50.08C116.68 50.2933 117.093 50.5067 117.6 50.72C118.107 50.9333 118.613 51.12 119.12 51.28C119.653 51.44 120.133 51.5733 120.56 51.68C120.373 53.1733 120.08 54.32 119.68 55.12C119.28 55.9467 118.693 56.5067 117.92 56.8C117.147 57.12 116.12 57.28 114.84 57.28C114.627 57.28 114.293 57.28 113.84 57.28C113.413 57.28 112.92 57.28 112.36 57.28C111.827 57.28 111.28 57.28 110.72 57.28C110.16 57.28 109.667 57.28 109.24 57.28C108.813 57.28 108.493 57.28 108.28 57.28C106.52 57.28 105.173 57.12 104.24 56.8C103.333 56.5067 102.693 55.9733 102.32 55.2C101.973 54.4267 101.8 53.3733 101.8 52.04V47.56ZM106 47L109.32 44.64C110.013 45.0133 110.72 45.4533 111.44 45.96C112.16 46.44 112.827 46.9467 113.44 47.48C114.08 47.9867 114.6 48.48 115 48.96L111.48 51.52C111.133 51.0667 110.653 50.5733 110.04 50.04C109.453 49.48 108.8 48.9333 108.08 48.4C107.387 47.8667 106.693 47.4 106 47ZM118.36 49.12L122.24 46.96C123.147 47.68 124.04 48.4933 124.92 49.4C125.827 50.28 126.64 51.1867 127.36 52.12C128.107 53.0267 128.68 53.88 129.08 54.68L124.88 57.04C124.533 56.24 124.013 55.3733 123.32 54.44C122.627 53.5067 121.84 52.5733 120.96 51.64C120.107 50.7067 119.24 49.8667 118.36 49.12ZM96.24 47.28L100.36 48.92C99.8267 50.4133 99.1467 51.9067 98.32 53.4C97.4933 54.8667 96.48 56.12 95.28 57.16L91.36 54.44C92.4533 53.5867 93.4133 52.52 94.24 51.24C95.0933 49.96 95.76 48.64 96.24 47.28ZM106.36 33.36V34.6H118.64V33.36H106.36ZM106.36 37V38.32H118.64V37H106.36ZM106.36 29.68V30.96H118.64V29.68H106.36ZM101.92 27.2H123.28V40.84H101.92V27.2ZM108.96 20L114.28 20.28C114.067 21.2933 113.813 22.3067 113.52 23.32C113.253 24.3333 112.987 25.2933 112.72 26.2C112.48 27.08 112.227 27.88 111.96 28.6L107.72 28.08C107.907 27.3333 108.08 26.4933 108.24 25.56C108.4 24.6 108.547 23.64 108.68 22.68C108.813 21.6933 108.907 20.8 108.96 20ZM92.96 22.32H127.24V25.72H92.96V22.32ZM94.72 28.12H99.2V42.2H127.8V45.84H94.72V28.12Z" fill="#E17100"/>
<path d="M143.812 28.8438C150.344 28.8438 154.125 30.5625 154.156 33.6875C154.125 36.8438 150.344 38.5625 143.812 38.5625C137.25 38.5625 133.438 36.8438 133.438 33.6875C133.438 30.5625 137.25 28.8438 143.812 28.8438ZM143.812 31.75C139.625 31.75 137.594 32.4375 137.625 33.6875C137.594 35.0938 139.625 35.625 143.812 35.625C148.031 35.625 150.031 35.0938 150.031 33.6875C150.031 32.4375 148.031 31.75 143.812 31.75ZM156.781 39.9062V43.0625H130.844V39.9062H156.781ZM153.625 44.7188V51.9688H137.781V53.6875H154.375V56.6875H133.875V49.1875H149.688V47.625H133.844V44.7188H153.625ZM181.875 28.4375V34.125H184.906V37.3438H181.875V43.3438H177.906V28.4375H181.875ZM165.875 30.5312C165.875 32.8438 166.266 35.5312 167.844 37.625C169.406 35.5625 169.781 32.8906 169.781 30.5625V29.4375H170.75V29.4062H173.5V30.5312C173.5 33.875 174.469 37.375 177.719 39.0938L175.656 41.9375C173.641 40.8594 172.406 39.125 171.688 37.0625C170.984 39.1875 169.812 41.0625 167.844 42.25C165.875 41.0625 164.688 39.1562 164.031 37.0312C163.266 39.0938 162.031 40.8594 160.062 41.9375L157.969 39.0938C161.188 37.3125 162.125 33.75 162.125 30.5312V29.4062H165.875V30.5312ZM182.719 44.6875V47.6875H162.156V44.6875H170.438V42.3125H174.469V44.6875H182.719ZM172.469 48.5938C177.938 48.5938 181.094 50.0938 181.094 52.7188C181.094 55.4375 177.938 56.875 172.469 56.875C166.906 56.875 163.75 55.4375 163.75 52.7188C163.75 50.0938 166.906 48.5938 172.469 48.5938ZM172.469 51.4062C169.156 51.4062 167.688 51.8438 167.719 52.7188C167.688 53.6875 169.156 54.0938 172.469 54.0938C175.625 54.0938 177.188 53.6875 177.188 52.7188C177.188 51.8438 175.625 51.4062 172.469 51.4062ZM208.594 28.4375V39H212.781V42.25H208.594V56.9375H204.594V28.4375H208.594ZM200.625 31.0625V34.2812H191.25V46.75C195.375 46.7031 198.781 46.5156 202.562 45.8438L203 49.1875C198.594 49.9375 194.719 50.0625 189.688 50.0312H187.281V31.0625H200.625Z" fill="#00B8DB"/>
</svg>
